<?xml version="1.0" encoding="UTF-8" standalone="no"?>
<!-- Created with Vectornator (http://vectornator.io/) -->

<svg
   height="100%"
   stroke-miterlimit="10"
   style="fill-rule:nonzero;clip-rule:evenodd;stroke-linecap:round;stroke-linejoin:round;"
   version="1.1"
   viewBox="0 0 595.35 841.995"
   width="100%"
   xml:space="preserve"
   id="svg151"
   sodipodi:docname="anagramablanco.svg"
   inkscape:export-filename="logosoloblanco.png"
   inkscape:export-xdpi="96"
   inkscape:export-ydpi="96"
   inkscape:version="1.2.1 (9c6d41e4, 2022-07-14)"
   xmlns:inkscape="http://www.inkscape.org/namespaces/inkscape"
   xmlns:sodipodi="http://sodipodi.sourceforge.net/DTD/sodipodi-0.dtd"
   xmlns="http://www.w3.org/2000/svg"
   xmlns:svg="http://www.w3.org/2000/svg"><sodipodi:namedview
   id="namedview153"
   pagecolor="#ffffff"
   bordercolor="#666666"
   borderopacity="1.0"
   inkscape:showpageshadow="2"
   inkscape:pageopacity="0.0"
   inkscape:pagecheckerboard="0"
   inkscape:deskcolor="#d1d1d1"
   showgrid="false"
   inkscape:zoom="0.45995399"
   inkscape:cx="165.23392"
   inkscape:cy="236.98022"
   inkscape:window-width="1440"
   inkscape:window-height="784"
   inkscape:window-x="0"
   inkscape:window-y="25"
   inkscape:window-maximized="0"
   inkscape:current-layer="svg151" />
<defs
   id="defs2"><rect
   x="179.04636"
   y="325.4489"
   width="302.69715"
   height="91.006987"
   id="rect577" />



















<rect
   x="179.04636"
   y="325.4489"
   width="302.69715"
   height="91.006987"
   id="rect3507" /></defs>

<path
   id="rect2805"
   style="fill-rule:nonzero;clip-rule:evenodd;stroke-linecap:round;stroke-linejoin:round;fill:#ffffff;stroke-width:22.4202;stroke-dashoffset:36.2835;stroke-opacity:0.429167"
   d="M 47.726562 95.662109 C 44.959956 95.662109 42.348933 96.22201 39.882812 97.082031 L 353.16602 97.082031 L 553.65625 97.082031 C 551.19013 96.22201 548.57911 95.662109 545.8125 95.662109 L 47.726562 95.662109 z M 353.16602 97.082031 L 298.42383 151.82227 L 407.9082 261.30664 L 353.16602 316.04492 L 298.42383 370.78516 L 353.16602 425.52734 L 407.9082 480.26953 L 298.42383 589.75195 L 352.2168 643.54297 L 354.11523 643.54297 L 517.39062 480.26953 L 407.9082 370.78516 L 517.39062 261.30664 L 353.16602 97.082031 z M 24.71875 113.625 C 24.244617 115.50472 23.916016 117.44163 23.916016 119.47266 L 23.916016 619.73242 C 23.916016 621.76344 24.244617 623.70036 24.71875 625.58008 L 24.71875 113.625 z M 243.68164 206.56445 L 79.460938 370.78516 L 243.68164 535.01172 L 298.42383 480.26953 L 188.94336 370.78516 L 298.42383 261.30664 L 243.68164 206.56445 z " />
</svg>
